Coordinates
version=1
nRows=49
nColumns=12
inDegrees=yes

Units are S.I. units (second, meters, Newtons, ...)
Angles are in degrees

endheader
time	SC_y	SC_z	SC_x	AC_y	AC_z	AC_x	GH_y	GH_z	GH_yy	EL_x	PS_y
       0.0               -14.8          20.83          37.52          56.79          9.036         -7.983         -80.68           6.99         -10.45          55.25           62.5
   0.01211               -14.8          20.82          37.52          56.79          9.032         -7.984         -80.69          6.996         -10.47          55.25          62.49
   0.02421              -14.81          20.82          37.52          56.78          9.028         -7.986          -80.7          7.003         -10.49          55.25          62.49
   0.03632              -14.81          20.82          37.52          56.78          9.023         -7.987         -80.72           7.01          -10.5          55.24          62.48
   0.04842              -14.81          20.81          37.52          56.78          9.018         -7.989         -80.73          7.017         -10.52          55.24          62.48
   0.06053              -14.81          20.81          37.52          56.77          9.013          -7.99         -80.74          7.025         -10.54          55.24          62.47
   0.07263              -14.81           20.8          37.52          56.77          9.007         -7.992         -80.76          7.033         -10.56          55.23          62.47
   0.08474              -14.82           20.8          37.52          56.76          9.001         -7.994         -80.77          7.043         -10.59          55.23          62.46
   0.09684              -14.82          20.79          37.52          56.76          8.995         -7.996         -80.79          7.052         -10.61          55.22          62.45
    0.1089              -14.82          20.79          37.52          56.75          8.988         -7.998         -80.81          7.063         -10.64          55.22          62.44
    0.1211              -14.82          20.78          37.52          56.75           8.98           -8.0         -80.83          7.074         -10.67          55.21          62.44
    0.1332              -14.83          20.78          37.52          56.74          8.973         -8.003         -80.85          7.086          -10.7           55.2          62.43
    0.1453              -14.83          20.77          37.52          56.74          8.964         -8.005         -80.87          7.099         -10.73           55.2          62.42
    0.1574              -14.84          20.77          37.52          56.73          8.955         -8.008          -80.9          7.113         -10.77          55.19          62.41
    0.1695              -14.84          20.76          37.52          56.72          8.945         -8.011         -80.92          7.128         -10.81          55.18          62.39
    0.1816              -14.84          20.75          37.52          56.71          8.934         -8.015         -80.95          7.145         -10.85          55.17          62.38
    0.1937              -14.85          20.74          37.52          56.71          8.922         -8.018         -80.99          7.162          -10.9          55.16          62.37
    0.2058              -14.86          20.73          37.52           56.7          8.909         -8.022         -81.02          7.182         -10.95          55.15          62.35
    0.2179              -14.86          20.72          37.52          56.69          8.895         -8.027         -81.06          7.203          -11.0          55.14          62.34
      0.23              -14.87          20.71          37.52          56.68          8.879         -8.031          -81.1          7.227         -11.06          55.13          62.32
    0.2421              -14.87           20.7          37.52          56.66          8.863         -8.037         -81.14          7.252         -11.13          55.12           62.3
    0.2542              -14.88          20.68          37.52          56.65          8.844         -8.042         -81.19           7.28          -11.2           55.1          62.28
    0.2663              -14.89          20.67          37.52          56.63          8.823         -8.049         -81.25          7.311         -11.28          55.09          62.26
    0.2784               -14.9          20.65          37.52          56.62            8.8         -8.056         -81.31          7.346         -11.37          55.07          62.23
    0.2905              -14.91          20.63          37.52           56.6          8.775         -8.064         -81.38          7.384         -11.46          55.05           62.2
    0.3026              -14.92          20.61          37.52          56.58          8.747         -8.072         -81.45          7.427         -11.57          55.03          62.17
    0.3147              -14.94          20.59          37.52          56.55          8.715         -8.082         -81.53          7.475          -11.7           55.0          62.13
    0.3268              -14.95          20.56          37.52          56.53           8.68         -8.093         -81.63          7.529         -11.84          54.98          62.09
    0.3389              -14.97          20.53          37.52           56.5          8.639         -8.106         -81.74          7.589         -11.99          54.94          62.05
    0.3511              -14.99           20.5          37.52          56.47          8.594          -8.12         -81.86          7.659         -12.17          54.91          61.99
    0.3632              -15.01          20.46          37.52          56.43          8.541         -8.136          -82.0          7.737         -12.37          54.87          61.93
    0.3753              -15.04          20.42          37.52          56.38          8.481         -8.154         -82.16          7.828          -12.6          54.82          61.86
    0.3874              -15.07          20.37          37.51          56.33          8.412         -8.176         -82.34          7.932         -12.87          54.77          61.79
    0.3995               -15.1          20.31          37.51          56.27          8.332           -8.2         -82.55          8.054         -13.18           54.7          61.69
    0.4116              -15.14          20.24          37.51          56.21          8.238         -8.229          -82.8          8.196         -13.55          54.63          61.59
    0.4237              -15.19          20.15          37.51          56.12          8.127         -8.264          -83.1          8.363         -13.98          54.54          61.46
    0.4358              -15.24          20.06          37.51          56.03          7.995         -8.304         -83.45          8.562         -14.49          54.44          61.31
    0.4479              -15.31          19.94          37.51          55.91          7.837         -8.353         -83.87          8.801          -15.1          54.32          61.13
      0.46              -15.39           19.8           37.5          55.77          7.646         -8.412         -84.38           9.09         -15.84          54.17          60.91
    0.4721              -15.49          19.63           37.5           55.6          7.413         -8.484          -85.0          9.442         -16.75          53.99          60.64
    0.4842              -15.61          19.42           37.5          55.39          7.125         -8.573         -85.76          9.877         -17.86          53.76          60.31
    0.4963              -15.76          19.15          37.49          55.13          6.766         -8.684         -86.72          10.42         -19.26          53.48           59.9
    0.5084              -15.95          18.82          37.49           54.8          6.313         -8.823         -87.92           11.1         -21.01          53.13          59.39
    0.5205               -16.2          18.39          37.48          54.38          5.738         -9.001         -89.45          11.97         -23.24          52.68          58.73
    0.5326              -16.51          17.85          37.47          53.84          5.002         -9.228          -91.4          13.08          -26.1          52.11          57.89
    0.5447              -16.91          17.15          37.46          53.14          4.057          -9.52         -93.91          14.51         -29.76          51.37          56.81
    0.5568              -17.42          16.26          37.44          52.26          2.851         -9.892         -97.12          16.34         -34.44          50.43          55.43
    0.5689              -18.06          15.14          37.42          51.15          1.333         -10.36         -101.2          18.63         -40.32          49.25          53.69
    0.5811              -18.84          13.78           37.4           49.8        -0.5159         -10.93         -106.1          21.42          -47.5          47.81          51.58
